<svg width="1024" height="1024" viewBox="0 0 1024 1024" fill="none" xmlns="http://www.w3.org/2000/svg">
<path d="M906.525 468.977C906.211 468.977 905.915 469.069 905.601 469.069C911.422 455.643 914.68 440.806 914.68 425.195C914.68 364.028 865.091 314.42 803.91 314.42C782.292 314.42 762.18 320.7 745.131 331.441C722.07 275.371 666.969 235.867 602.602 235.867C517.482 235.867 448.477 304.862 448.477 390.015C448.477 396.432 448.996 402.712 449.761 408.947C449.328 408.947 448.91 408.902 448.477 408.902C391.406 408.902 345.138 455.142 345.138 512.214C345.138 569.285 391.406 615.57 448.477 615.57H906.525C947.003 615.57 979.812 582.756 979.812 542.297C979.812 501.791 947.003 468.977 906.525 468.977Z" fill="#C2CEF2"/>
<path d="M722.885 565.413C722.503 565.413 722.153 565.504 721.771 565.504C728.788 549.257 732.725 531.371 732.725 512.574C732.725 438.8 672.927 379.043 599.167 379.043C573.098 379.043 548.853 386.598 528.296 399.523C500.488 331.938 434.06 284.288 356.444 284.288C253.815 284.288 170.615 367.529 170.615 470.157C170.615 477.894 171.243 485.495 172.167 493.004C171.644 493.004 171.139 492.913 170.615 492.913C101.806 492.913 46.0225 548.711 46.0225 617.52C46.0225 686.329 101.806 742.112 170.615 742.112H722.885C771.688 742.112 811.251 702.554 811.251 653.752C811.251 604.954 771.688 565.413 722.885 565.413Z" fill="white"/>
</svg>
